<mxfile host="app.diagrams.net" modified="2023-09-21T08:08:28.079Z" agent="Mozilla/5.0 (Windows NT 10.0; Win64; x64) AppleWebKit/537.36 (KHTML, like Gecko) Chrome/116.0.0.0 Safari/537.36" etag="Q7bDXWpmnyMvAPCTGEKm" version="21.7.5" type="github">
  <diagram id="R2lEEEUBdFMjLlhIrx00" name="Page-1">
    <mxGraphModel dx="678" dy="385" grid="1" gridSize="10" guides="1" tooltips="1" connect="1" arrows="1" fold="1" page="1" pageScale="1" pageWidth="850" pageHeight="1100" math="0" shadow="0" extFonts="Permanent Marker^https://fonts.googleapis.com/css?family=Permanent+Marker">
      <root>
        <mxCell id="0" />
        <mxCell id="1" parent="0" />
        <mxCell id="mnnpbtpwBx2o3jUgGED_-2" value="Cursos" style="whiteSpace=wrap;html=1;align=center;" parent="1" vertex="1">
          <mxGeometry x="225" y="240" width="100" height="40" as="geometry" />
        </mxCell>
        <mxCell id="mnnpbtpwBx2o3jUgGED_-3" value="Alumnos" style="whiteSpace=wrap;html=1;align=center;" parent="1" vertex="1">
          <mxGeometry x="485" y="240" width="100" height="40" as="geometry" />
        </mxCell>
        <mxCell id="4qxijivyfeoxdcw_ADb_-3" style="edgeStyle=orthogonalEdgeStyle;rounded=0;orthogonalLoop=1;jettySize=auto;html=1;exitX=1;exitY=0.5;exitDx=0;exitDy=0;entryX=0;entryY=0.5;entryDx=0;entryDy=0;" edge="1" parent="1" source="mnnpbtpwBx2o3jUgGED_-13" target="mnnpbtpwBx2o3jUgGED_-3">
          <mxGeometry relative="1" as="geometry" />
        </mxCell>
        <mxCell id="4qxijivyfeoxdcw_ADb_-4" style="edgeStyle=orthogonalEdgeStyle;rounded=0;orthogonalLoop=1;jettySize=auto;html=1;exitX=0;exitY=0.5;exitDx=0;exitDy=0;entryX=1;entryY=0.5;entryDx=0;entryDy=0;" edge="1" parent="1" source="mnnpbtpwBx2o3jUgGED_-13" target="mnnpbtpwBx2o3jUgGED_-2">
          <mxGeometry relative="1" as="geometry" />
        </mxCell>
        <mxCell id="mnnpbtpwBx2o3jUgGED_-13" value="Pertenece" style="shape=rhombus;perimeter=rhombusPerimeter;whiteSpace=wrap;html=1;align=center;" parent="1" vertex="1">
          <mxGeometry x="365" y="240" width="80" height="40" as="geometry" />
        </mxCell>
        <mxCell id="mnnpbtpwBx2o3jUgGED_-21" value="(1, n)" style="text;strokeColor=none;fillColor=none;spacingLeft=4;spacingRight=4;overflow=hidden;rotatable=0;points=[[0,0.5],[1,0.5]];portConstraint=eastwest;fontSize=12;whiteSpace=wrap;html=1;" parent="1" vertex="1">
          <mxGeometry x="575" y="320" width="40" height="30" as="geometry" />
        </mxCell>
        <mxCell id="mnnpbtpwBx2o3jUgGED_-22" value="(1, 1)" style="text;strokeColor=none;fillColor=none;spacingLeft=4;spacingRight=4;overflow=hidden;rotatable=0;points=[[0,0.5],[1,0.5]];portConstraint=eastwest;fontSize=12;whiteSpace=wrap;html=1;" parent="1" vertex="1">
          <mxGeometry x="455" y="320" width="40" height="30" as="geometry" />
        </mxCell>
        <mxCell id="mnnpbtpwBx2o3jUgGED_-23" value="1:n&lt;br&gt;" style="text;strokeColor=none;fillColor=none;spacingLeft=4;spacingRight=4;overflow=hidden;rotatable=0;points=[[0,0.5],[1,0.5]];portConstraint=eastwest;fontSize=12;whiteSpace=wrap;html=1;" parent="1" vertex="1">
          <mxGeometry x="525" y="340" width="40" height="30" as="geometry" />
        </mxCell>
        <mxCell id="mnnpbtpwBx2o3jUgGED_-24" value="Asignaturas" style="whiteSpace=wrap;html=1;align=center;" parent="1" vertex="1">
          <mxGeometry x="485" y="40" width="100" height="40" as="geometry" />
        </mxCell>
        <mxCell id="4qxijivyfeoxdcw_ADb_-1" style="edgeStyle=orthogonalEdgeStyle;rounded=0;orthogonalLoop=1;jettySize=auto;html=1;exitX=0.5;exitY=1;exitDx=0;exitDy=0;" edge="1" parent="1" source="mnnpbtpwBx2o3jUgGED_-25" target="mnnpbtpwBx2o3jUgGED_-3">
          <mxGeometry relative="1" as="geometry" />
        </mxCell>
        <mxCell id="4qxijivyfeoxdcw_ADb_-2" style="edgeStyle=orthogonalEdgeStyle;rounded=0;orthogonalLoop=1;jettySize=auto;html=1;exitX=0.5;exitY=0;exitDx=0;exitDy=0;" edge="1" parent="1" source="mnnpbtpwBx2o3jUgGED_-25" target="mnnpbtpwBx2o3jUgGED_-24">
          <mxGeometry relative="1" as="geometry" />
        </mxCell>
        <mxCell id="mnnpbtpwBx2o3jUgGED_-25" value="Cursan" style="shape=rhombus;perimeter=rhombusPerimeter;whiteSpace=wrap;html=1;align=center;" parent="1" vertex="1">
          <mxGeometry x="495" y="140" width="80" height="40" as="geometry" />
        </mxCell>
        <mxCell id="mnnpbtpwBx2o3jUgGED_-28" value="(1 , n)" style="text;strokeColor=none;fillColor=none;spacingLeft=4;spacingRight=4;overflow=hidden;rotatable=0;points=[[0,0.5],[1,0.5]];portConstraint=eastwest;fontSize=12;whiteSpace=wrap;html=1;" parent="1" vertex="1">
          <mxGeometry x="535" y="80" width="50" height="30" as="geometry" />
        </mxCell>
        <mxCell id="mnnpbtpwBx2o3jUgGED_-29" value="(0, n)" style="text;strokeColor=none;fillColor=none;spacingLeft=4;spacingRight=4;overflow=hidden;rotatable=0;points=[[0,0.5],[1,0.5]];portConstraint=eastwest;fontSize=12;whiteSpace=wrap;html=1;" parent="1" vertex="1">
          <mxGeometry x="535" y="210" width="50" height="30" as="geometry" />
        </mxCell>
        <mxCell id="mnnpbtpwBx2o3jUgGED_-30" value="n:m" style="text;strokeColor=none;fillColor=none;spacingLeft=4;spacingRight=4;overflow=hidden;rotatable=0;points=[[0,0.5],[1,0.5]];portConstraint=eastwest;fontSize=12;whiteSpace=wrap;html=1;" parent="1" vertex="1">
          <mxGeometry x="575" y="145" width="50" height="30" as="geometry" />
        </mxCell>
        <mxCell id="mnnpbtpwBx2o3jUgGED_-31" value="(1, n)" style="text;strokeColor=none;fillColor=none;spacingLeft=4;spacingRight=4;overflow=hidden;rotatable=0;points=[[0,0.5],[1,0.5]];portConstraint=eastwest;fontSize=12;whiteSpace=wrap;html=1;" parent="1" vertex="1">
          <mxGeometry x="445" y="230" width="50" height="30" as="geometry" />
        </mxCell>
        <mxCell id="mnnpbtpwBx2o3jUgGED_-32" value="(1, 1)" style="text;strokeColor=none;fillColor=none;spacingLeft=4;spacingRight=4;overflow=hidden;rotatable=0;points=[[0,0.5],[1,0.5]];portConstraint=eastwest;fontSize=12;whiteSpace=wrap;html=1;" parent="1" vertex="1">
          <mxGeometry x="325" y="230" width="50" height="30" as="geometry" />
        </mxCell>
        <mxCell id="mnnpbtpwBx2o3jUgGED_-33" value="1:n" style="text;strokeColor=none;fillColor=none;spacingLeft=4;spacingRight=4;overflow=hidden;rotatable=0;points=[[0,0.5],[1,0.5]];portConstraint=eastwest;fontSize=12;whiteSpace=wrap;html=1;" parent="1" vertex="1">
          <mxGeometry x="390" y="210" width="50" height="30" as="geometry" />
        </mxCell>
        <mxCell id="4qxijivyfeoxdcw_ADb_-5" style="edgeStyle=orthogonalEdgeStyle;rounded=0;orthogonalLoop=1;jettySize=auto;html=1;entryX=1;entryY=0.75;entryDx=0;entryDy=0;" edge="1" parent="1" source="mnnpbtpwBx2o3jUgGED_-35" target="mnnpbtpwBx2o3jUgGED_-3">
          <mxGeometry relative="1" as="geometry">
            <Array as="points">
              <mxPoint x="605" y="320" />
              <mxPoint x="605" y="270" />
            </Array>
          </mxGeometry>
        </mxCell>
        <mxCell id="4qxijivyfeoxdcw_ADb_-6" style="edgeStyle=orthogonalEdgeStyle;rounded=0;orthogonalLoop=1;jettySize=auto;html=1;exitX=0;exitY=0.5;exitDx=0;exitDy=0;entryX=0;entryY=0.75;entryDx=0;entryDy=0;" edge="1" parent="1" source="mnnpbtpwBx2o3jUgGED_-35" target="mnnpbtpwBx2o3jUgGED_-3">
          <mxGeometry relative="1" as="geometry" />
        </mxCell>
        <mxCell id="mnnpbtpwBx2o3jUgGED_-35" value="Delegado" style="shape=rhombus;perimeter=rhombusPerimeter;whiteSpace=wrap;html=1;align=center;" parent="1" vertex="1">
          <mxGeometry x="495" y="300" width="80" height="40" as="geometry" />
        </mxCell>
      </root>
    </mxGraphModel>
  </diagram>
</mxfile>
